# xmcd
#
# Track frame offsets:
#	150
#	25103
#	43784
#	60354
#	82439
#	99289
#	121829
#	139815
#
# Disc length: 2186 seconds
#
# Revision: 1
# Processed by: cddbd v1.5.2PL0 Copyright (c) Steve Scherf et al.
# Submitted via: audiograbber 1.83.01
#
DISCID=64088808
DTITLE=Kroner - Luftschloss
DYEAR=2012
DGENRE=
TTITLE0=besonders
TTITLE1=was passiert hier
TTITLE2=stalker
TTITLE3=tanz heute mit mir
TTITLE4=schwarzweiﬂ
TTITLE5=w‰chter der nacht
TTITLE6=auf stein gebaut
TTITLE7=der l‰ngste weg
EXTD=
EXTT0=
EXTT1=
EXTT2=
EXTT3=
EXTT4=
EXTT5=
EXTT6=
EXTT7=
PLAYORDER=
